<mxfile host="app.diagrams.net" modified="2023-05-07T21:06:59.336Z" agent="Mozilla/5.0 (Windows NT 10.0; Win64; x64) AppleWebKit/537.36 (KHTML, like Gecko) Chrome/112.0.0.0 Safari/537.36" etag="pWOdicrUWEouPSmTDMmi" version="21.2.9" type="github">
  <diagram name="Página-1" id="bSJGP8Rl3pwdWKhk3Nbw">
    <mxGraphModel dx="880" dy="484" grid="1" gridSize="10" guides="1" tooltips="1" connect="1" arrows="1" fold="1" page="1" pageScale="1" pageWidth="827" pageHeight="1169" math="0" shadow="0">
      <root>
        <mxCell id="0" />
        <mxCell id="1" parent="0" />
        <mxCell id="TybLUOuc99CVGpNBgaMz-9" value="" style="rounded=0;whiteSpace=wrap;html=1;fillColor=#f5f5f5;gradientColor=#b3b3b3;strokeColor=#666666;" parent="1" vertex="1">
          <mxGeometry x="13" y="40" width="800" height="560" as="geometry" />
        </mxCell>
        <mxCell id="TybLUOuc99CVGpNBgaMz-1" value="Demo" style="html=1;shadow=0;dashed=0;fontSize=16;align=left;spacing=15;fillColor=none;strokeColor=none;" parent="1" vertex="1">
          <mxGeometry x="250" y="50" width="563" height="60" as="geometry" />
        </mxCell>
        <mxCell id="TybLUOuc99CVGpNBgaMz-2" value="Precios" style="fillColor=none;strokeColor=none;fontSize=14;fontColor=#080808;align=center;" parent="TybLUOuc99CVGpNBgaMz-1" vertex="1">
          <mxGeometry width="70" height="40" relative="1" as="geometry">
            <mxPoint x="70" y="10" as="offset" />
          </mxGeometry>
        </mxCell>
        <mxCell id="TybLUOuc99CVGpNBgaMz-3" value="Características Chatbot " style="fillColor=none;strokeColor=none;fontSize=14;fontColor=#9A9DA0;align=center;" parent="TybLUOuc99CVGpNBgaMz-1" vertex="1">
          <mxGeometry width="160" height="40" relative="1" as="geometry">
            <mxPoint x="157" y="10" as="offset" />
          </mxGeometry>
        </mxCell>
        <mxCell id="TybLUOuc99CVGpNBgaMz-6" value="Login" style="html=1;shadow=0;dashed=0;shape=mxgraph.bootstrap.rrect;rSize=5;fontSize=14;fontColor=#1CA5B8;strokeColor=#1CA5B8;fillColor=none;" parent="TybLUOuc99CVGpNBgaMz-1" vertex="1">
          <mxGeometry x="1" width="91" height="40" relative="1" as="geometry">
            <mxPoint x="-101" y="10" as="offset" />
          </mxGeometry>
        </mxCell>
        <mxCell id="TybLUOuc99CVGpNBgaMz-16" value="Power by PortalUp&lt;br&gt;" style="text;html=1;align=center;verticalAlign=middle;resizable=0;points=[];autosize=1;strokeColor=none;fillColor=none;" parent="1" vertex="1">
          <mxGeometry x="354" y="570" width="120" height="30" as="geometry" />
        </mxCell>
        <mxCell id="TybLUOuc99CVGpNBgaMz-17" value="ortalUp" style="text;html=1;align=center;verticalAlign=middle;resizable=0;points=[];autosize=1;strokeColor=none;fillColor=none;fontSize=16;" parent="1" vertex="1">
          <mxGeometry x="33" y="86" width="80" height="30" as="geometry" />
        </mxCell>
        <mxCell id="kCEi4esk9JjT-v6ZgHjA-2" value="" style="image;image=img/lib/atlassian/Hipchat_Logo.svg;html=1;direction=east;flipH=0;flipV=0;" parent="1" vertex="1">
          <mxGeometry x="760" y="545" width="40" height="40" as="geometry" />
        </mxCell>
        <mxCell id="qUeKAZHSjAzKXp8nuljT-1" value="" style="dashed=0;outlineConnect=0;html=1;align=center;labelPosition=center;verticalLabelPosition=bottom;verticalAlign=top;shape=mxgraph.weblogos.paypal" vertex="1" parent="1">
          <mxGeometry x="20" y="52" width="51.2" height="58" as="geometry" />
        </mxCell>
      </root>
    </mxGraphModel>
  </diagram>
</mxfile>
